HIERARCHY
ROOT Hips
{
	OFFSET	0.000000	0.000000	0.000000
	CHANNELS 6 Xposition Yposition Zposition Zrotation Xrotation Yrotation
	JOINT LeftUpLeg
	{
		OFFSET	12.830505	-7.049846	-1.643436
		CHANNELS 3 Zrotation Xrotation Yrotation
		JOINT LeftLeg
		{
			OFFSET	0.620834	-39.957500	-1.919341
			CHANNELS 3 Zrotation Xrotation Yrotation
			JOINT LeftFoot
			{
				OFFSET	-0.413890	-44.704761	-3.870325
				CHANNELS 3 Zrotation Xrotation Yrotation
				JOINT LeftFootHeel
				{
					OFFSET	0.164738	-8.918193	-6.555130
					CHANNELS 3 Zrotation Xrotation Yrotation
					End Site
					{
						OFFSET	-0.604053	0.000000	21.044330
					}
				}
			}
		}
	}
	JOINT RightUpLeg
	{
		OFFSET	-12.830505	-7.049846	-1.643436
		CHANNELS 3 Zrotation Xrotation Yrotation
		JOINT RightLeg
		{
			OFFSET	-0.620834	-39.957500	-1.919341
			CHANNELS 3 Zrotation Xrotation Yrotation
			JOINT RightFoot
			{
				OFFSET	0.413890	-44.704761	-3.870325
				CHANNELS 3 Zrotation Xrotation Yrotation
				JOINT RightFootHeel
				{
					OFFSET	-0.164738	-8.918193	-6.555130
					CHANNELS 3 Zrotation Xrotation Yrotation
					End Site
					{
						OFFSET	0.604053	0.000000	21.044330
					}
				}
			}
		}
	}
	JOINT Spine
	{
		OFFSET	0.000000	12.498170	1.820647
		CHANNELS 3 Zrotation Xrotation Yrotation
		JOINT Spine1
		{
			OFFSET	0.000000	7.620000	0.000000
			CHANNELS 3 Zrotation Xrotation Yrotation
			JOINT LeftShoulder
			{
				OFFSET	9.167800	29.136339	-5.551221
				CHANNELS 3 Zrotation Xrotation Yrotation
				JOINT LeftArm
				{
					OFFSET	12.133453	-3.880866	1.461963
					CHANNELS 3 Zrotation Xrotation Yrotation
					JOINT LeftForeArm
					{
						OFFSET	2.507115	-31.664908	-1.069404
						CHANNELS 3 Zrotation Xrotation Yrotation
						JOINT LeftHand
						{
							OFFSET	4.116172	-24.512624	5.009439
							CHANNELS 3 Zrotation Xrotation Yrotation
							End Site
							{
								OFFSET	-0.213136	-10.931856	2.182134
							}
						}
					}
				}
			}
			JOINT RightShoulder
			{
				OFFSET	-9.167800	29.136339	-5.551221
				CHANNELS 3 Zrotation Xrotation Yrotation
				JOINT RightArm
				{
					OFFSET	-12.133453	-3.880866	1.461963
					CHANNELS 3 Zrotation Xrotation Yrotation
					JOINT RightForeArm
					{
						OFFSET	-2.507115	-31.664908	-1.069404
						CHANNELS 3 Zrotation Xrotation Yrotation
						JOINT RightHand
						{
							OFFSET	-4.116172	-24.512624	5.009439
							CHANNELS 3 Zrotation Xrotation Yrotation
							End Site
							{
								OFFSET	0.213136	-10.931856	2.182134
							}
						}
					}
				}
			}
			JOINT Neck
			{
				OFFSET	0.000000	32.926272	-3.635654
				CHANNELS 3 Zrotation Xrotation Yrotation
				JOINT Head
				{
					OFFSET	0.000000	12.481178	4.646143
					CHANNELS 3 Zrotation Xrotation Yrotation
					End Site
					{
						OFFSET	0.000000	17.715204	-2.222063
					}
				}
			}
		}
	}
}
MOTION
Frames:     8
Frame Time: 0.016667
0.000000	103.266379	0.000000	0.776502	2.142212	0.297550	-1.921785	-3.101050	0.410888	1.445206	0.405705	-1.797344	-2.097579	0.193756	1.323709	0.	0.	0.	-2.712975	-1.236201	-2.713197	-0.800977	0.182256	-1.898339	2.487296	-0.352465	1.508686	0.	0.	0.	-0.000000	-0.000000	0.000000	-2.046583	1.761879	2.156562	-0.026570	-3.165697	-1.707715	-0.078922	-2.857553	-4.089366	1.217250	3.592442	-4.262331	-2.016784	-1.829703	0.305428	-0.926152	-4.935045	-0.513234	1.066244	-1.234213	1.962968	0.274147	0.264565	4.564371	-1.302337	0.363562	-2.632333	1.533520	-0.546658	-1.672382	-2.376877	2.078643	3.061350	
-0.002776	103.269267	-0.037000	0.778264	2.143259	0.318934	-1.930960	-3.119729	0.385111	1.453556	0.426592	-1.793791	-2.099514	0.191224	1.323515	0.	0.	0.	-2.712584	-1.277955	-2.742896	-0.802993	0.219258	-1.874466	2.484432	-0.348771	1.493484	0.	0.	0.	-0.000000	-0.000000	-0.000001	-2.042266	1.788177	2.138119	-0.020362	-3.147383	-1.718703	-0.079022	-2.844861	-4.086091	1.218115	3.570642	-4.237926	-1.909565	-1.927815	0.417059	-0.933420	-4.945289	-0.512050	1.057755	-1.238826	2.007218	0.282297	0.299587	4.519723	-1.319374	0.381415	-2.647268	1.517727	-0.585360	-1.674094	-2.334749	1.937604	3.013516	
-0.005288	103.271050	-0.061029	0.778264	2.143259	0.318934	-1.934664	-3.130927	0.387194	1.457350	0.437703	-1.796361	-2.099514	0.191224	1.323515	0.	0.	0.	-2.710744	-1.307500	-2.748714	-0.803531	0.243956	-1.852514	2.481445	-0.344906	1.477609	0.	0.	0.	-0.000000	-0.000000	-0.000001	-2.037463	1.811720	2.140820	-0.018432	-3.143647	-1.726274	-0.082059	-2.867842	-4.127399	1.228131	3.634141	-4.181110	-1.887653	-1.955224	0.407886	-0.932670	-4.948138	-0.516967	1.039915	-1.253232	2.084764	0.293857	0.292746	4.444586	-1.327454	0.459856	-2.571962	1.447764	-0.618782	-1.652795	-2.248435	2.033236	2.974196	
-0.006841	103.272338	-0.079964	0.778264	2.143259	0.318934	-1.939178	-3.144609	0.389738	1.461974	0.451279	-1.799497	-2.099514	0.191224	1.323515	0.	0.	0.	-2.709527	-1.333756	-2.760707	-0.805465	0.268945	-1.836710	2.480794	-0.344068	1.474154	0.	0.	0.	-0.000000	-0.000000	-0.000001	-2.035074	1.831764	2.130718	-0.015514	-3.144399	-1.719574	-0.081303	-2.870844	-4.163999	1.237990	3.687489	-4.130848	-1.895885	-1.924193	0.388639	-0.928032	-4.947744	-0.509110	1.022596	-1.267964	2.157459	0.292118	0.384263	4.467415	-1.314446	0.423455	-2.578768	1.361688	-0.653172	-1.612043	-2.114781	2.244388	2.908884	
-0.006412	103.272270	-0.079174	0.778264	2.143259	0.318934	-1.944926	-3.161258	0.382692	1.467774	0.468057	-1.793193	-2.099514	0.191224	1.323515	0.	0.	0.	-2.711992	-1.333116	-2.798783	-0.803150	0.267892	-1.798700	2.480794	-0.344068	1.474153	0.	0.	0.	-0.000000	-0.000000	-0.000001	-2.032625	1.853021	2.119380	-0.012772	-3.146864	-1.711552	-0.082997	-2.882009	-4.184874	1.247589	3.736221	-4.099201	-1.901270	-1.885714	0.372346	-0.926559	-4.950918	-0.497304	1.012306	-1.282306	2.200743	0.297000	0.370863	4.438737	-1.275925	0.435776	-2.535657	1.306343	-0.649496	-1.570772	-2.002447	2.479519	2.821103	
-0.005598	103.271534	-0.070108	0.777402	2.142747	0.308476	-1.946290	-3.169067	0.387031	1.470584	0.476150	-1.787377	-2.099513	0.191224	1.323515	0.	0.	0.	-2.714613	-1.323994	-2.836667	-0.799201	0.258300	-1.750529	2.480794	-0.344068	1.474153	0.	0.	0.	-0.000000	-0.000000	-0.000001	-2.028299	1.873883	2.129110	-0.012444	-3.150465	-1.713856	-0.083355	-2.877585	-4.179034	1.250591	3.735524	-4.099185	-1.916394	-1.888283	0.365341	-0.932987	-4.961839	-0.492431	1.011028	-1.290093	2.216255	0.297722	0.352447	4.437388	-1.224287	0.410601	-2.529924	1.307792	-0.615473	-1.556496	-1.991333	2.662441	2.719644	
-0.005017	103.270681	-0.060504	0.776042	2.141930	0.292025	-1.949179	-3.182602	0.380155	1.475646	0.490488	-1.764601	-2.099514	0.191224	1.323515	0.	0.	0.	-2.716104	-1.315868	-2.862133	-0.795754	0.249790	-1.708727	2.480794	-0.344068	1.474152	0.	0.	0.	-0.000000	-0.000001	-0.000001	-2.023592	1.893156	2.147814	-0.012961	-3.154691	-1.718711	-0.084955	-2.881013	-4.174878	1.257636	3.757644	-4.097068	-1.972955	-1.920218	0.350368	-0.937806	-4.980686	-0.495049	1.008735	-1.288674	2.230855	0.299358	0.300822	4.428901	-1.197548	0.425073	-2.523326	1.356842	-0.590593	-1.632462	-2.081172	2.708881	2.722852	
-0.004854	103.269964	-0.052981	0.774510	2.141018	0.273445	-1.947512	-3.184264	0.387864	1.476470	0.492694	-1.753727	-2.099514	0.191224	1.323515	0.	0.	0.	-2.715997	-1.311173	-2.867723	-0.793769	0.244877	-1.684577	2.480794	-0.344068	1.474153	0.	0.	0.	-0.000000	-0.000000	0.000001	-2.019372	1.909623	2.168336	-0.014137	-3.160853	-1.722402	-0.086312	-2.884873	-4.172262	1.258716	3.758353	-4.096973	-2.009531	-1.925812	0.342274	-0.941911	-4.996738	-0.497281	1.005618	-1.286760	2.250608	0.303369	0.218485	4.407005	-1.230985	0.450958	-2.536248	1.375408	-0.562696	-1.769233	-2.143154	2.606844	2.775404	
